<?xml version="1.0" encoding="UTF-8" standalone="no"?>
<!DOCTYPE svg PUBLIC "-//W3C//DTD SVG 1.1//EN"
 "http://www.w3.org/Graphics/SVG/1.1/DTD/svg11.dtd">
<!-- Generated by graphviz version 2.40.1 (20161225.0304)
 -->
<!-- Title: %3 Pages: 1 -->
<svg width="908pt" height="188pt"
 viewBox="0.00 0.00 908.49 188.00" xmlns="http://www.w3.org/2000/svg" xmlns:xlink="http://www.w3.org/1999/xlink">
<g id="graph0" class="graph" transform="scale(1 1) rotate(0) translate(4 184)">
<title>%3</title>
<polygon fill="#ffffff" stroke="transparent" points="-4,4 -4,-184 904.4925,-184 904.4925,4 -4,4"/>
<!-- Schopnosť vymýšľať metódy -->
<g id="node1" class="node">
<title>Schopnosť vymýšľať metódy</title>
<ellipse fill="none" stroke="#000000" cx="469.2463" cy="-162" rx="112.3801" ry="18"/>
<text text-anchor="middle" x="469.2463" y="-158.3" font-family="Times,serif" font-size="14.00" fill="#000000">Schopnosť vymýšľať metódy</text>
</g>
<!-- Metóda 1 -->
<g id="node2" class="node">
<title>Metóda 1</title>
<ellipse fill="none" stroke="#000000" cx="214.2463" cy="-90" rx="44.6926" ry="18"/>
<text text-anchor="middle" x="214.2463" y="-86.3" font-family="Times,serif" font-size="14.00" fill="#000000">Metóda 1</text>
</g>
<!-- Schopnosť vymýšľať metódy&#45;&gt;Metóda 1 -->
<g id="edge1" class="edge">
<title>Schopnosť vymýšľať metódy&#45;&gt;Metóda 1</title>
<path fill="none" stroke="#000000" d="M413.6005,-146.2883C367.9197,-133.3902 303.9678,-115.3331 260.9251,-103.1799"/>
<polygon fill="#000000" stroke="#000000" points="261.8406,-99.8016 251.2658,-100.4526 259.9385,-106.5383 261.8406,-99.8016"/>
</g>
<!-- Metóda 2 -->
<g id="node6" class="node">
<title>Metóda 2</title>
<ellipse fill="none" stroke="#000000" cx="370.2463" cy="-90" rx="44.6926" ry="18"/>
<text text-anchor="middle" x="370.2463" y="-86.3" font-family="Times,serif" font-size="14.00" fill="#000000">Metóda 2</text>
</g>
<!-- Schopnosť vymýšľať metódy&#45;&gt;Metóda 2 -->
<g id="edge5" class="edge">
<title>Schopnosť vymýšľať metódy&#45;&gt;Metóda 2</title>
<path fill="none" stroke="#000000" d="M445.0281,-144.3868C431.5338,-134.5728 414.6129,-122.2666 400.2813,-111.8437"/>
<polygon fill="#000000" stroke="#000000" points="402.3338,-109.0087 392.1878,-105.9575 398.2166,-114.6698 402.3338,-109.0087"/>
</g>
<!-- Metóda 3 -->
<g id="node9" class="node">
<title>Metóda 3</title>
<ellipse fill="none" stroke="#000000" cx="526.2463" cy="-90" rx="44.6926" ry="18"/>
<text text-anchor="middle" x="526.2463" y="-86.3" font-family="Times,serif" font-size="14.00" fill="#000000">Metóda 3</text>
</g>
<!-- Schopnosť vymýšľať metódy&#45;&gt;Metóda 3 -->
<g id="edge9" class="edge">
<title>Schopnosť vymýšľať metódy&#45;&gt;Metóda 3</title>
<path fill="none" stroke="#000000" d="M483.6298,-143.8314C490.4659,-135.1962 498.7517,-124.7299 506.193,-115.3304"/>
<polygon fill="#000000" stroke="#000000" points="508.9943,-117.4307 512.4572,-107.4177 503.506,-113.0857 508.9943,-117.4307"/>
</g>
<!-- Metóda 4 -->
<g id="node12" class="node">
<title>Metóda 4</title>
<ellipse fill="none" stroke="#000000" cx="679.2463" cy="-90" rx="44.6926" ry="18"/>
<text text-anchor="middle" x="679.2463" y="-86.3" font-family="Times,serif" font-size="14.00" fill="#000000">Metóda 4</text>
</g>
<!-- Schopnosť vymýšľať metódy&#45;&gt;Metóda 4 -->
<g id="edge13" class="edge">
<title>Schopnosť vymýšľať metódy&#45;&gt;Metóda 4</title>
<path fill="none" stroke="#000000" d="M516.8985,-145.6621C552.3639,-133.5025 600.4208,-117.0259 635.0342,-105.1584"/>
<polygon fill="#000000" stroke="#000000" points="636.5422,-108.3415 644.8665,-101.7873 634.2719,-101.7198 636.5422,-108.3415"/>
</g>
<!-- Otázka 1 -->
<g id="node3" class="node">
<title>Otázka 1</title>
<ellipse fill="none" stroke="#000000" cx="42.2463" cy="-18" rx="42.4939" ry="18"/>
<text text-anchor="middle" x="42.2463" y="-14.3" font-family="Times,serif" font-size="14.00" fill="#000000">Otázka 1</text>
</g>
<!-- Metóda 1&#45;&gt;Otázka 1 -->
<g id="edge2" class="edge">
<title>Metóda 1&#45;&gt;Otázka 1</title>
<path fill="none" stroke="#000000" d="M183.0983,-76.9613C154.7956,-65.1137 112.8896,-47.5716 82.1439,-34.7013"/>
<polygon fill="#000000" stroke="#000000" points="83.161,-31.3329 72.585,-30.7 80.458,-37.7899 83.161,-31.3329"/>
</g>
<!-- Otázka 2 -->
<g id="node4" class="node">
<title>Otázka 2</title>
<ellipse fill="none" stroke="#000000" cx="144.2463" cy="-18" rx="42.4939" ry="18"/>
<text text-anchor="middle" x="144.2463" y="-14.3" font-family="Times,serif" font-size="14.00" fill="#000000">Otázka 2</text>
</g>
<!-- Metóda 1&#45;&gt;Otázka 2 -->
<g id="edge3" class="edge">
<title>Metóda 1&#45;&gt;Otázka 2</title>
<path fill="none" stroke="#000000" d="M197.6572,-72.937C188.7652,-63.791 177.6569,-52.3652 167.8771,-42.3061"/>
<polygon fill="#000000" stroke="#000000" points="170.1965,-39.6707 160.7162,-34.9405 165.1775,-44.5503 170.1965,-39.6707"/>
</g>
<!-- Otázka 3 -->
<g id="node5" class="node">
<title>Otázka 3</title>
<ellipse fill="none" stroke="#000000" cx="246.2463" cy="-18" rx="42.4939" ry="18"/>
<text text-anchor="middle" x="246.2463" y="-14.3" font-family="Times,serif" font-size="14.00" fill="#000000">Otázka 3</text>
</g>
<!-- Metóda 1&#45;&gt;Otázka 3 -->
<g id="edge4" class="edge">
<title>Metóda 1&#45;&gt;Otázka 3</title>
<path fill="none" stroke="#000000" d="M222.1564,-72.2022C225.7718,-64.0675 230.1351,-54.2501 234.1493,-45.2181"/>
<polygon fill="#000000" stroke="#000000" points="237.4531,-46.4022 238.3162,-35.8425 231.0564,-43.5592 237.4531,-46.4022"/>
</g>
<!-- Metóda 2&#45;&gt;Otázka 3 -->
<g id="edge6" class="edge">
<title>Metóda 2&#45;&gt;Otázka 3</title>
<path fill="none" stroke="#000000" d="M344.5534,-75.0816C325.8916,-64.2457 300.454,-49.4755 280.1301,-37.6745"/>
<polygon fill="#000000" stroke="#000000" points="281.8873,-34.6476 271.482,-32.653 278.3724,-40.7012 281.8873,-34.6476"/>
</g>
<!-- Otázka 4 -->
<g id="node7" class="node">
<title>Otázka 4</title>
<ellipse fill="none" stroke="#000000" cx="348.2463" cy="-18" rx="42.4939" ry="18"/>
<text text-anchor="middle" x="348.2463" y="-14.3" font-family="Times,serif" font-size="14.00" fill="#000000">Otázka 4</text>
</g>
<!-- Metóda 2&#45;&gt;Otázka 4 -->
<g id="edge7" class="edge">
<title>Metóda 2&#45;&gt;Otázka 4</title>
<path fill="none" stroke="#000000" d="M364.6947,-71.8314C362.2794,-63.9266 359.3951,-54.4872 356.7213,-45.7365"/>
<polygon fill="#000000" stroke="#000000" points="359.9893,-44.4541 353.7198,-35.9134 353.2948,-46.4997 359.9893,-44.4541"/>
</g>
<!-- Otázka 5 -->
<g id="node8" class="node">
<title>Otázka 5</title>
<ellipse fill="none" stroke="#000000" cx="450.2463" cy="-18" rx="42.4939" ry="18"/>
<text text-anchor="middle" x="450.2463" y="-14.3" font-family="Times,serif" font-size="14.00" fill="#000000">Otázka 5</text>
</g>
<!-- Metóda 2&#45;&gt;Otázka 5 -->
<g id="edge8" class="edge">
<title>Metóda 2&#45;&gt;Otázka 5</title>
<path fill="none" stroke="#000000" d="M388.8009,-73.3008C399.3769,-63.7825 412.7925,-51.7084 424.3882,-41.2722"/>
<polygon fill="#000000" stroke="#000000" points="426.9764,-43.6516 432.068,-34.3604 422.2937,-38.4486 426.9764,-43.6516"/>
</g>
<!-- Metóda 3&#45;&gt;Otázka 5 -->
<g id="edge10" class="edge">
<title>Metóda 3&#45;&gt;Otázka 5</title>
<path fill="none" stroke="#000000" d="M508.6193,-73.3008C498.6434,-63.85 486.008,-51.8795 475.046,-41.4945"/>
<polygon fill="#000000" stroke="#000000" points="477.4443,-38.9453 467.7776,-34.6087 472.6301,-44.027 477.4443,-38.9453"/>
</g>
<!-- Otázka 6 -->
<g id="node10" class="node">
<title>Otázka 6</title>
<ellipse fill="none" stroke="#000000" cx="552.2463" cy="-18" rx="42.4939" ry="18"/>
<text text-anchor="middle" x="552.2463" y="-14.3" font-family="Times,serif" font-size="14.00" fill="#000000">Otázka 6</text>
</g>
<!-- Metóda 3&#45;&gt;Otázka 6 -->
<g id="edge11" class="edge">
<title>Metóda 3&#45;&gt;Otázka 6</title>
<path fill="none" stroke="#000000" d="M532.8071,-71.8314C535.6927,-63.8406 539.1445,-54.2819 542.3332,-45.4514"/>
<polygon fill="#000000" stroke="#000000" points="545.673,-46.5077 545.7775,-35.9134 539.0891,-44.1302 545.673,-46.5077"/>
</g>
<!-- Otázka 7 -->
<g id="node11" class="node">
<title>Otázka 7</title>
<ellipse fill="none" stroke="#000000" cx="654.2463" cy="-18" rx="42.4939" ry="18"/>
<text text-anchor="middle" x="654.2463" y="-14.3" font-family="Times,serif" font-size="14.00" fill="#000000">Otázka 7</text>
</g>
<!-- Metóda 3&#45;&gt;Otázka 7 -->
<g id="edge12" class="edge">
<title>Metóda 3&#45;&gt;Otázka 7</title>
<path fill="none" stroke="#000000" d="M552.4578,-75.256C571.8264,-64.3611 598.3889,-49.4197 619.5225,-37.5321"/>
<polygon fill="#000000" stroke="#000000" points="621.5073,-40.4314 628.5071,-32.4783 618.0754,-34.3304 621.5073,-40.4314"/>
</g>
<!-- Metóda 4&#45;&gt;Otázka 7 -->
<g id="edge14" class="edge">
<title>Metóda 4&#45;&gt;Otázka 7</title>
<path fill="none" stroke="#000000" d="M672.9377,-71.8314C670.1631,-63.8406 666.8441,-54.2819 663.778,-45.4514"/>
<polygon fill="#000000" stroke="#000000" points="667.0527,-44.2121 660.4662,-35.9134 660.44,-46.5082 667.0527,-44.2121"/>
</g>
<!-- Otázka 8 -->
<g id="node13" class="node">
<title>Otázka 8</title>
<ellipse fill="none" stroke="#000000" cx="756.2463" cy="-18" rx="42.4939" ry="18"/>
<text text-anchor="middle" x="756.2463" y="-14.3" font-family="Times,serif" font-size="14.00" fill="#000000">Otázka 8</text>
</g>
<!-- Metóda 4&#45;&gt;Otázka 8 -->
<g id="edge15" class="edge">
<title>Metóda 4&#45;&gt;Otázka 8</title>
<path fill="none" stroke="#000000" d="M697.1051,-73.3008C707.2123,-63.85 720.014,-51.8795 731.1201,-41.4945"/>
<polygon fill="#000000" stroke="#000000" points="733.5704,-43.9951 738.4842,-34.6087 728.7895,-38.8821 733.5704,-43.9951"/>
</g>
<!-- Otázka 9 -->
<g id="node14" class="node">
<title>Otázka 9</title>
<ellipse fill="none" stroke="#000000" cx="858.2463" cy="-18" rx="42.4939" ry="18"/>
<text text-anchor="middle" x="858.2463" y="-14.3" font-family="Times,serif" font-size="14.00" fill="#000000">Otázka 9</text>
</g>
<!-- Metóda 4&#45;&gt;Otázka 9 -->
<g id="edge16" class="edge">
<title>Metóda 4&#45;&gt;Otázka 9</title>
<path fill="none" stroke="#000000" d="M711.2479,-77.1278C741.0482,-65.1411 785.5971,-47.222 817.8385,-34.2534"/>
<polygon fill="#000000" stroke="#000000" points="819.4479,-37.3786 827.4194,-30.3996 816.8356,-30.8843 819.4479,-37.3786"/>
</g>
</g>
</svg>
