<?xml version="1.0" encoding="UTF-8" standalone="no"?>
<!DOCTYPE svg PUBLIC "-//W3C//DTD SVG 1.1//EN"
 "http://www.w3.org/Graphics/SVG/1.1/DTD/svg11.dtd">
<!-- Generated by graphviz version 2.40.1 (20161225.0304)
 -->
<!-- Title: %3 Pages: 1 -->
<svg width="2582pt" height="188pt"
 viewBox="0.00 0.00 2582.00 188.00" xmlns="http://www.w3.org/2000/svg" xmlns:xlink="http://www.w3.org/1999/xlink">
<g id="graph0" class="graph" transform="scale(1 1) rotate(0) translate(4 184)">
<title>%3</title>
<polygon fill="#ffffff" stroke="transparent" points="-4,4 -4,-184 2578,-184 2578,4 -4,4"/>
<!-- _ -->
<g id="node1" class="node">
<title>_</title>
<ellipse fill="none" stroke="#000000" cx="1287" cy="-162" rx="27" ry="18"/>
<text text-anchor="middle" x="1287" y="-158.3" font-family="Times,serif" font-size="14.00" fill="#000000">_</text>
</g>
<!-- 1 -->
<g id="node2" class="node">
<title>1</title>
<ellipse fill="none" stroke="#000000" cx="243" cy="-90" rx="27" ry="18"/>
<text text-anchor="middle" x="243" y="-86.3" font-family="Times,serif" font-size="14.00" fill="#000000">1</text>
</g>
<!-- _&#45;&gt;1 -->
<g id="edge1" class="edge">
<title>_&#45;&gt;1</title>
<path fill="none" stroke="#000000" d="M1259.8787,-160.1296C1116.426,-150.2363 446.4268,-104.0294 280.3302,-92.5745"/>
<polygon fill="#000000" stroke="#000000" points="280.3465,-89.0674 270.1294,-91.871 279.8648,-96.0508 280.3465,-89.0674"/>
</g>
<!-- 2 -->
<g id="node9" class="node">
<title>2</title>
<ellipse fill="none" stroke="#000000" cx="675" cy="-90" rx="27" ry="18"/>
<text text-anchor="middle" x="675" y="-86.3" font-family="Times,serif" font-size="14.00" fill="#000000">2</text>
</g>
<!-- _&#45;&gt;2 -->
<g id="edge8" class="edge">
<title>_&#45;&gt;2</title>
<path fill="none" stroke="#000000" d="M1260.3096,-158.86C1162.6909,-147.3754 824.8804,-107.633 712.0337,-94.3569"/>
<polygon fill="#000000" stroke="#000000" points="712.1714,-90.849 701.8309,-93.1566 711.3534,-97.8011 712.1714,-90.849"/>
</g>
<!-- 3 -->
<g id="node16" class="node">
<title>3</title>
<ellipse fill="none" stroke="#000000" cx="1107" cy="-90" rx="27" ry="18"/>
<text text-anchor="middle" x="1107" y="-86.3" font-family="Times,serif" font-size="14.00" fill="#000000">3</text>
</g>
<!-- _&#45;&gt;3 -->
<g id="edge15" class="edge">
<title>_&#45;&gt;3</title>
<path fill="none" stroke="#000000" d="M1263.8366,-152.7347C1232.3313,-140.1325 1175.7927,-117.5171 1139.8982,-103.1593"/>
<polygon fill="#000000" stroke="#000000" points="1140.9442,-99.8081 1130.3596,-99.3438 1138.3444,-106.3075 1140.9442,-99.8081"/>
</g>
<!-- 4 -->
<g id="node23" class="node">
<title>4</title>
<ellipse fill="none" stroke="#000000" cx="1467" cy="-90" rx="27" ry="18"/>
<text text-anchor="middle" x="1467" y="-86.3" font-family="Times,serif" font-size="14.00" fill="#000000">4</text>
</g>
<!-- _&#45;&gt;4 -->
<g id="edge22" class="edge">
<title>_&#45;&gt;4</title>
<path fill="none" stroke="#000000" d="M1310.1634,-152.7347C1341.6687,-140.1325 1398.2073,-117.5171 1434.1018,-103.1593"/>
<polygon fill="#000000" stroke="#000000" points="1435.6556,-106.3075 1443.6404,-99.3438 1433.0558,-99.8081 1435.6556,-106.3075"/>
</g>
<!-- 5 -->
<g id="node30" class="node">
<title>5</title>
<ellipse fill="none" stroke="#000000" cx="1899" cy="-90" rx="27" ry="18"/>
<text text-anchor="middle" x="1899" y="-86.3" font-family="Times,serif" font-size="14.00" fill="#000000">5</text>
</g>
<!-- _&#45;&gt;5 -->
<g id="edge29" class="edge">
<title>_&#45;&gt;5</title>
<path fill="none" stroke="#000000" d="M1313.6904,-158.86C1411.3091,-147.3754 1749.1196,-107.633 1861.9663,-94.3569"/>
<polygon fill="#000000" stroke="#000000" points="1862.6466,-97.8011 1872.1691,-93.1566 1861.8286,-90.849 1862.6466,-97.8011"/>
</g>
<!-- 6 -->
<g id="node37" class="node">
<title>6</title>
<ellipse fill="none" stroke="#000000" cx="2331" cy="-90" rx="27" ry="18"/>
<text text-anchor="middle" x="2331" y="-86.3" font-family="Times,serif" font-size="14.00" fill="#000000">6</text>
</g>
<!-- _&#45;&gt;6 -->
<g id="edge36" class="edge">
<title>_&#45;&gt;6</title>
<path fill="none" stroke="#000000" d="M1314.1213,-160.1296C1457.574,-150.2363 2127.5732,-104.0294 2293.6698,-92.5745"/>
<polygon fill="#000000" stroke="#000000" points="2294.1352,-96.0508 2303.8706,-91.871 2293.6535,-89.0674 2294.1352,-96.0508"/>
</g>
<!-- 11 -->
<g id="node3" class="node">
<title>11</title>
<ellipse fill="none" stroke="#000000" cx="27" cy="-18" rx="27" ry="18"/>
<text text-anchor="middle" x="27" y="-14.3" font-family="Times,serif" font-size="14.00" fill="#000000">11</text>
</g>
<!-- 1&#45;&gt;11 -->
<g id="edge2" class="edge">
<title>1&#45;&gt;11</title>
<path fill="none" stroke="#000000" d="M217.4913,-83.8285C182.1788,-74.9533 116.6807,-57.2886 63,-36 61.1488,-35.2658 59.2635,-34.4721 57.3748,-33.641"/>
<polygon fill="#000000" stroke="#000000" points="58.5848,-30.3432 48.0435,-29.279 55.6204,-36.6845 58.5848,-30.3432"/>
</g>
<!-- 12 -->
<g id="node4" class="node">
<title>12</title>
<ellipse fill="none" stroke="#000000" cx="99" cy="-18" rx="27" ry="18"/>
<text text-anchor="middle" x="99" y="-14.3" font-family="Times,serif" font-size="14.00" fill="#000000">12</text>
</g>
<!-- 1&#45;&gt;12 -->
<g id="edge3" class="edge">
<title>1&#45;&gt;12</title>
<path fill="none" stroke="#000000" d="M221.1295,-79.0647C196.7778,-66.8889 157.238,-47.119 129.7715,-33.3858"/>
<polygon fill="#000000" stroke="#000000" points="131.114,-30.1439 120.6045,-28.8022 127.9835,-36.4049 131.114,-30.1439"/>
</g>
<!-- 13 -->
<g id="node5" class="node">
<title>13</title>
<ellipse fill="none" stroke="#000000" cx="171" cy="-18" rx="27" ry="18"/>
<text text-anchor="middle" x="171" y="-14.3" font-family="Times,serif" font-size="14.00" fill="#000000">13</text>
</g>
<!-- 1&#45;&gt;13 -->
<g id="edge4" class="edge">
<title>1&#45;&gt;13</title>
<path fill="none" stroke="#000000" d="M227.7307,-74.7307C217.803,-64.803 204.6847,-51.6847 193.5637,-40.5637"/>
<polygon fill="#000000" stroke="#000000" points="195.7933,-37.8436 186.2473,-33.2473 190.8436,-42.7933 195.7933,-37.8436"/>
</g>
<!-- 14 -->
<g id="node6" class="node">
<title>14</title>
<ellipse fill="none" stroke="#000000" cx="243" cy="-18" rx="27" ry="18"/>
<text text-anchor="middle" x="243" y="-14.3" font-family="Times,serif" font-size="14.00" fill="#000000">14</text>
</g>
<!-- 1&#45;&gt;14 -->
<g id="edge5" class="edge">
<title>1&#45;&gt;14</title>
<path fill="none" stroke="#000000" d="M243,-71.8314C243,-64.131 243,-54.9743 243,-46.4166"/>
<polygon fill="#000000" stroke="#000000" points="246.5001,-46.4132 243,-36.4133 239.5001,-46.4133 246.5001,-46.4132"/>
</g>
<!-- 15 -->
<g id="node7" class="node">
<title>15</title>
<ellipse fill="none" stroke="#000000" cx="315" cy="-18" rx="27" ry="18"/>
<text text-anchor="middle" x="315" y="-14.3" font-family="Times,serif" font-size="14.00" fill="#000000">15</text>
</g>
<!-- 1&#45;&gt;15 -->
<g id="edge6" class="edge">
<title>1&#45;&gt;15</title>
<path fill="none" stroke="#000000" d="M258.2693,-74.7307C268.197,-64.803 281.3153,-51.6847 292.4363,-40.5637"/>
<polygon fill="#000000" stroke="#000000" points="295.1564,-42.7933 299.7527,-33.2473 290.2067,-37.8436 295.1564,-42.7933"/>
</g>
<!-- 16 -->
<g id="node8" class="node">
<title>16</title>
<ellipse fill="none" stroke="#000000" cx="387" cy="-18" rx="27" ry="18"/>
<text text-anchor="middle" x="387" y="-14.3" font-family="Times,serif" font-size="14.00" fill="#000000">16</text>
</g>
<!-- 1&#45;&gt;16 -->
<g id="edge7" class="edge">
<title>1&#45;&gt;16</title>
<path fill="none" stroke="#000000" d="M264.8705,-79.0647C289.2222,-66.8889 328.762,-47.119 356.2285,-33.3858"/>
<polygon fill="#000000" stroke="#000000" points="358.0165,-36.4049 365.3955,-28.8022 354.886,-30.1439 358.0165,-36.4049"/>
</g>
<!-- 21 -->
<g id="node10" class="node">
<title>21</title>
<ellipse fill="none" stroke="#000000" cx="459" cy="-18" rx="27" ry="18"/>
<text text-anchor="middle" x="459" y="-14.3" font-family="Times,serif" font-size="14.00" fill="#000000">21</text>
</g>
<!-- 2&#45;&gt;21 -->
<g id="edge9" class="edge">
<title>2&#45;&gt;21</title>
<path fill="none" stroke="#000000" d="M649.4913,-83.8285C614.1788,-74.9533 548.6807,-57.2886 495,-36 493.1488,-35.2658 491.2635,-34.4721 489.3748,-33.641"/>
<polygon fill="#000000" stroke="#000000" points="490.5848,-30.3432 480.0435,-29.279 487.6204,-36.6845 490.5848,-30.3432"/>
</g>
<!-- 22 -->
<g id="node11" class="node">
<title>22</title>
<ellipse fill="none" stroke="#000000" cx="531" cy="-18" rx="27" ry="18"/>
<text text-anchor="middle" x="531" y="-14.3" font-family="Times,serif" font-size="14.00" fill="#000000">22</text>
</g>
<!-- 2&#45;&gt;22 -->
<g id="edge10" class="edge">
<title>2&#45;&gt;22</title>
<path fill="none" stroke="#000000" d="M653.1295,-79.0647C628.7778,-66.8889 589.238,-47.119 561.7715,-33.3858"/>
<polygon fill="#000000" stroke="#000000" points="563.114,-30.1439 552.6045,-28.8022 559.9835,-36.4049 563.114,-30.1439"/>
</g>
<!-- 23 -->
<g id="node12" class="node">
<title>23</title>
<ellipse fill="none" stroke="#000000" cx="603" cy="-18" rx="27" ry="18"/>
<text text-anchor="middle" x="603" y="-14.3" font-family="Times,serif" font-size="14.00" fill="#000000">23</text>
</g>
<!-- 2&#45;&gt;23 -->
<g id="edge11" class="edge">
<title>2&#45;&gt;23</title>
<path fill="none" stroke="#000000" d="M659.7307,-74.7307C649.803,-64.803 636.6847,-51.6847 625.5637,-40.5637"/>
<polygon fill="#000000" stroke="#000000" points="627.7933,-37.8436 618.2473,-33.2473 622.8436,-42.7933 627.7933,-37.8436"/>
</g>
<!-- 24 -->
<g id="node13" class="node">
<title>24</title>
<ellipse fill="none" stroke="#000000" cx="675" cy="-18" rx="27" ry="18"/>
<text text-anchor="middle" x="675" y="-14.3" font-family="Times,serif" font-size="14.00" fill="#000000">24</text>
</g>
<!-- 2&#45;&gt;24 -->
<g id="edge12" class="edge">
<title>2&#45;&gt;24</title>
<path fill="none" stroke="#000000" d="M675,-71.8314C675,-64.131 675,-54.9743 675,-46.4166"/>
<polygon fill="#000000" stroke="#000000" points="678.5001,-46.4132 675,-36.4133 671.5001,-46.4133 678.5001,-46.4132"/>
</g>
<!-- 25 -->
<g id="node14" class="node">
<title>25</title>
<ellipse fill="none" stroke="#000000" cx="747" cy="-18" rx="27" ry="18"/>
<text text-anchor="middle" x="747" y="-14.3" font-family="Times,serif" font-size="14.00" fill="#000000">25</text>
</g>
<!-- 2&#45;&gt;25 -->
<g id="edge13" class="edge">
<title>2&#45;&gt;25</title>
<path fill="none" stroke="#000000" d="M690.2693,-74.7307C700.197,-64.803 713.3153,-51.6847 724.4363,-40.5637"/>
<polygon fill="#000000" stroke="#000000" points="727.1564,-42.7933 731.7527,-33.2473 722.2067,-37.8436 727.1564,-42.7933"/>
</g>
<!-- 26 -->
<g id="node15" class="node">
<title>26</title>
<ellipse fill="none" stroke="#000000" cx="819" cy="-18" rx="27" ry="18"/>
<text text-anchor="middle" x="819" y="-14.3" font-family="Times,serif" font-size="14.00" fill="#000000">26</text>
</g>
<!-- 2&#45;&gt;26 -->
<g id="edge14" class="edge">
<title>2&#45;&gt;26</title>
<path fill="none" stroke="#000000" d="M696.8705,-79.0647C721.2222,-66.8889 760.762,-47.119 788.2285,-33.3858"/>
<polygon fill="#000000" stroke="#000000" points="790.0165,-36.4049 797.3955,-28.8022 786.886,-30.1439 790.0165,-36.4049"/>
</g>
<!-- 31 -->
<g id="node17" class="node">
<title>31</title>
<ellipse fill="none" stroke="#000000" cx="891" cy="-18" rx="27" ry="18"/>
<text text-anchor="middle" x="891" y="-14.3" font-family="Times,serif" font-size="14.00" fill="#000000">31</text>
</g>
<!-- 3&#45;&gt;31 -->
<g id="edge16" class="edge">
<title>3&#45;&gt;31</title>
<path fill="none" stroke="#000000" d="M1081.4913,-83.8285C1046.1788,-74.9533 980.6807,-57.2886 927,-36 925.1488,-35.2658 923.2635,-34.4721 921.3748,-33.641"/>
<polygon fill="#000000" stroke="#000000" points="922.5848,-30.3432 912.0435,-29.279 919.6204,-36.6845 922.5848,-30.3432"/>
</g>
<!-- 32 -->
<g id="node18" class="node">
<title>32</title>
<ellipse fill="none" stroke="#000000" cx="963" cy="-18" rx="27" ry="18"/>
<text text-anchor="middle" x="963" y="-14.3" font-family="Times,serif" font-size="14.00" fill="#000000">32</text>
</g>
<!-- 3&#45;&gt;32 -->
<g id="edge17" class="edge">
<title>3&#45;&gt;32</title>
<path fill="none" stroke="#000000" d="M1085.1295,-79.0647C1060.7778,-66.8889 1021.238,-47.119 993.7715,-33.3858"/>
<polygon fill="#000000" stroke="#000000" points="995.114,-30.1439 984.6045,-28.8022 991.9835,-36.4049 995.114,-30.1439"/>
</g>
<!-- 33 -->
<g id="node19" class="node">
<title>33</title>
<ellipse fill="none" stroke="#000000" cx="1035" cy="-18" rx="27" ry="18"/>
<text text-anchor="middle" x="1035" y="-14.3" font-family="Times,serif" font-size="14.00" fill="#000000">33</text>
</g>
<!-- 3&#45;&gt;33 -->
<g id="edge18" class="edge">
<title>3&#45;&gt;33</title>
<path fill="none" stroke="#000000" d="M1091.7307,-74.7307C1081.803,-64.803 1068.6847,-51.6847 1057.5637,-40.5637"/>
<polygon fill="#000000" stroke="#000000" points="1059.7933,-37.8436 1050.2473,-33.2473 1054.8436,-42.7933 1059.7933,-37.8436"/>
</g>
<!-- 34 -->
<g id="node20" class="node">
<title>34</title>
<ellipse fill="none" stroke="#000000" cx="1107" cy="-18" rx="27" ry="18"/>
<text text-anchor="middle" x="1107" y="-14.3" font-family="Times,serif" font-size="14.00" fill="#000000">34</text>
</g>
<!-- 3&#45;&gt;34 -->
<g id="edge19" class="edge">
<title>3&#45;&gt;34</title>
<path fill="none" stroke="#000000" d="M1107,-71.8314C1107,-64.131 1107,-54.9743 1107,-46.4166"/>
<polygon fill="#000000" stroke="#000000" points="1110.5001,-46.4132 1107,-36.4133 1103.5001,-46.4133 1110.5001,-46.4132"/>
</g>
<!-- 35 -->
<g id="node21" class="node">
<title>35</title>
<ellipse fill="none" stroke="#000000" cx="1179" cy="-18" rx="27" ry="18"/>
<text text-anchor="middle" x="1179" y="-14.3" font-family="Times,serif" font-size="14.00" fill="#000000">35</text>
</g>
<!-- 3&#45;&gt;35 -->
<g id="edge20" class="edge">
<title>3&#45;&gt;35</title>
<path fill="none" stroke="#000000" d="M1122.2693,-74.7307C1132.197,-64.803 1145.3153,-51.6847 1156.4363,-40.5637"/>
<polygon fill="#000000" stroke="#000000" points="1159.1564,-42.7933 1163.7527,-33.2473 1154.2067,-37.8436 1159.1564,-42.7933"/>
</g>
<!-- 36 -->
<g id="node22" class="node">
<title>36</title>
<ellipse fill="none" stroke="#000000" cx="1251" cy="-18" rx="27" ry="18"/>
<text text-anchor="middle" x="1251" y="-14.3" font-family="Times,serif" font-size="14.00" fill="#000000">36</text>
</g>
<!-- 3&#45;&gt;36 -->
<g id="edge21" class="edge">
<title>3&#45;&gt;36</title>
<path fill="none" stroke="#000000" d="M1128.8705,-79.0647C1153.2222,-66.8889 1192.762,-47.119 1220.2285,-33.3858"/>
<polygon fill="#000000" stroke="#000000" points="1222.0165,-36.4049 1229.3955,-28.8022 1218.886,-30.1439 1222.0165,-36.4049"/>
</g>
<!-- 41 -->
<g id="node24" class="node">
<title>41</title>
<ellipse fill="none" stroke="#000000" cx="1323" cy="-18" rx="27" ry="18"/>
<text text-anchor="middle" x="1323" y="-14.3" font-family="Times,serif" font-size="14.00" fill="#000000">41</text>
</g>
<!-- 4&#45;&gt;41 -->
<g id="edge23" class="edge">
<title>4&#45;&gt;41</title>
<path fill="none" stroke="#000000" d="M1445.1295,-79.0647C1420.7778,-66.8889 1381.238,-47.119 1353.7715,-33.3858"/>
<polygon fill="#000000" stroke="#000000" points="1355.114,-30.1439 1344.6045,-28.8022 1351.9835,-36.4049 1355.114,-30.1439"/>
</g>
<!-- 42 -->
<g id="node25" class="node">
<title>42</title>
<ellipse fill="none" stroke="#000000" cx="1395" cy="-18" rx="27" ry="18"/>
<text text-anchor="middle" x="1395" y="-14.3" font-family="Times,serif" font-size="14.00" fill="#000000">42</text>
</g>
<!-- 4&#45;&gt;42 -->
<g id="edge24" class="edge">
<title>4&#45;&gt;42</title>
<path fill="none" stroke="#000000" d="M1451.7307,-74.7307C1441.803,-64.803 1428.6847,-51.6847 1417.5637,-40.5637"/>
<polygon fill="#000000" stroke="#000000" points="1419.7933,-37.8436 1410.2473,-33.2473 1414.8436,-42.7933 1419.7933,-37.8436"/>
</g>
<!-- 43 -->
<g id="node26" class="node">
<title>43</title>
<ellipse fill="none" stroke="#000000" cx="1467" cy="-18" rx="27" ry="18"/>
<text text-anchor="middle" x="1467" y="-14.3" font-family="Times,serif" font-size="14.00" fill="#000000">43</text>
</g>
<!-- 4&#45;&gt;43 -->
<g id="edge25" class="edge">
<title>4&#45;&gt;43</title>
<path fill="none" stroke="#000000" d="M1467,-71.8314C1467,-64.131 1467,-54.9743 1467,-46.4166"/>
<polygon fill="#000000" stroke="#000000" points="1470.5001,-46.4132 1467,-36.4133 1463.5001,-46.4133 1470.5001,-46.4132"/>
</g>
<!-- 44 -->
<g id="node27" class="node">
<title>44</title>
<ellipse fill="none" stroke="#000000" cx="1539" cy="-18" rx="27" ry="18"/>
<text text-anchor="middle" x="1539" y="-14.3" font-family="Times,serif" font-size="14.00" fill="#000000">44</text>
</g>
<!-- 4&#45;&gt;44 -->
<g id="edge26" class="edge">
<title>4&#45;&gt;44</title>
<path fill="none" stroke="#000000" d="M1482.2693,-74.7307C1492.197,-64.803 1505.3153,-51.6847 1516.4363,-40.5637"/>
<polygon fill="#000000" stroke="#000000" points="1519.1564,-42.7933 1523.7527,-33.2473 1514.2067,-37.8436 1519.1564,-42.7933"/>
</g>
<!-- 45 -->
<g id="node28" class="node">
<title>45</title>
<ellipse fill="none" stroke="#000000" cx="1611" cy="-18" rx="27" ry="18"/>
<text text-anchor="middle" x="1611" y="-14.3" font-family="Times,serif" font-size="14.00" fill="#000000">45</text>
</g>
<!-- 4&#45;&gt;45 -->
<g id="edge27" class="edge">
<title>4&#45;&gt;45</title>
<path fill="none" stroke="#000000" d="M1488.8705,-79.0647C1513.2222,-66.8889 1552.762,-47.119 1580.2285,-33.3858"/>
<polygon fill="#000000" stroke="#000000" points="1582.0165,-36.4049 1589.3955,-28.8022 1578.886,-30.1439 1582.0165,-36.4049"/>
</g>
<!-- 46 -->
<g id="node29" class="node">
<title>46</title>
<ellipse fill="none" stroke="#000000" cx="1683" cy="-18" rx="27" ry="18"/>
<text text-anchor="middle" x="1683" y="-14.3" font-family="Times,serif" font-size="14.00" fill="#000000">46</text>
</g>
<!-- 4&#45;&gt;46 -->
<g id="edge28" class="edge">
<title>4&#45;&gt;46</title>
<path fill="none" stroke="#000000" d="M1492.5087,-83.8285C1527.8212,-74.9533 1593.3193,-57.2886 1647,-36 1648.8512,-35.2658 1650.7365,-34.4721 1652.6252,-33.641"/>
<polygon fill="#000000" stroke="#000000" points="1654.3796,-36.6845 1661.9565,-29.279 1651.4152,-30.3432 1654.3796,-36.6845"/>
</g>
<!-- 51 -->
<g id="node31" class="node">
<title>51</title>
<ellipse fill="none" stroke="#000000" cx="1755" cy="-18" rx="27" ry="18"/>
<text text-anchor="middle" x="1755" y="-14.3" font-family="Times,serif" font-size="14.00" fill="#000000">51</text>
</g>
<!-- 5&#45;&gt;51 -->
<g id="edge30" class="edge">
<title>5&#45;&gt;51</title>
<path fill="none" stroke="#000000" d="M1877.1295,-79.0647C1852.7778,-66.8889 1813.238,-47.119 1785.7715,-33.3858"/>
<polygon fill="#000000" stroke="#000000" points="1787.114,-30.1439 1776.6045,-28.8022 1783.9835,-36.4049 1787.114,-30.1439"/>
</g>
<!-- 52 -->
<g id="node32" class="node">
<title>52</title>
<ellipse fill="none" stroke="#000000" cx="1827" cy="-18" rx="27" ry="18"/>
<text text-anchor="middle" x="1827" y="-14.3" font-family="Times,serif" font-size="14.00" fill="#000000">52</text>
</g>
<!-- 5&#45;&gt;52 -->
<g id="edge31" class="edge">
<title>5&#45;&gt;52</title>
<path fill="none" stroke="#000000" d="M1883.7307,-74.7307C1873.803,-64.803 1860.6847,-51.6847 1849.5637,-40.5637"/>
<polygon fill="#000000" stroke="#000000" points="1851.7933,-37.8436 1842.2473,-33.2473 1846.8436,-42.7933 1851.7933,-37.8436"/>
</g>
<!-- 53 -->
<g id="node33" class="node">
<title>53</title>
<ellipse fill="none" stroke="#000000" cx="1899" cy="-18" rx="27" ry="18"/>
<text text-anchor="middle" x="1899" y="-14.3" font-family="Times,serif" font-size="14.00" fill="#000000">53</text>
</g>
<!-- 5&#45;&gt;53 -->
<g id="edge32" class="edge">
<title>5&#45;&gt;53</title>
<path fill="none" stroke="#000000" d="M1899,-71.8314C1899,-64.131 1899,-54.9743 1899,-46.4166"/>
<polygon fill="#000000" stroke="#000000" points="1902.5001,-46.4132 1899,-36.4133 1895.5001,-46.4133 1902.5001,-46.4132"/>
</g>
<!-- 54 -->
<g id="node34" class="node">
<title>54</title>
<ellipse fill="none" stroke="#000000" cx="1971" cy="-18" rx="27" ry="18"/>
<text text-anchor="middle" x="1971" y="-14.3" font-family="Times,serif" font-size="14.00" fill="#000000">54</text>
</g>
<!-- 5&#45;&gt;54 -->
<g id="edge33" class="edge">
<title>5&#45;&gt;54</title>
<path fill="none" stroke="#000000" d="M1914.2693,-74.7307C1924.197,-64.803 1937.3153,-51.6847 1948.4363,-40.5637"/>
<polygon fill="#000000" stroke="#000000" points="1951.1564,-42.7933 1955.7527,-33.2473 1946.2067,-37.8436 1951.1564,-42.7933"/>
</g>
<!-- 55 -->
<g id="node35" class="node">
<title>55</title>
<ellipse fill="none" stroke="#000000" cx="2043" cy="-18" rx="27" ry="18"/>
<text text-anchor="middle" x="2043" y="-14.3" font-family="Times,serif" font-size="14.00" fill="#000000">55</text>
</g>
<!-- 5&#45;&gt;55 -->
<g id="edge34" class="edge">
<title>5&#45;&gt;55</title>
<path fill="none" stroke="#000000" d="M1920.8705,-79.0647C1945.2222,-66.8889 1984.762,-47.119 2012.2285,-33.3858"/>
<polygon fill="#000000" stroke="#000000" points="2014.0165,-36.4049 2021.3955,-28.8022 2010.886,-30.1439 2014.0165,-36.4049"/>
</g>
<!-- 56 -->
<g id="node36" class="node">
<title>56</title>
<ellipse fill="none" stroke="#000000" cx="2115" cy="-18" rx="27" ry="18"/>
<text text-anchor="middle" x="2115" y="-14.3" font-family="Times,serif" font-size="14.00" fill="#000000">56</text>
</g>
<!-- 5&#45;&gt;56 -->
<g id="edge35" class="edge">
<title>5&#45;&gt;56</title>
<path fill="none" stroke="#000000" d="M1924.5087,-83.8285C1959.8212,-74.9533 2025.3193,-57.2886 2079,-36 2080.8512,-35.2658 2082.7365,-34.4721 2084.6252,-33.641"/>
<polygon fill="#000000" stroke="#000000" points="2086.3796,-36.6845 2093.9565,-29.279 2083.4152,-30.3432 2086.3796,-36.6845"/>
</g>
<!-- 61 -->
<g id="node38" class="node">
<title>61</title>
<ellipse fill="none" stroke="#000000" cx="2187" cy="-18" rx="27" ry="18"/>
<text text-anchor="middle" x="2187" y="-14.3" font-family="Times,serif" font-size="14.00" fill="#000000">61</text>
</g>
<!-- 6&#45;&gt;61 -->
<g id="edge37" class="edge">
<title>6&#45;&gt;61</title>
<path fill="none" stroke="#000000" d="M2309.1295,-79.0647C2284.7778,-66.8889 2245.238,-47.119 2217.7715,-33.3858"/>
<polygon fill="#000000" stroke="#000000" points="2219.114,-30.1439 2208.6045,-28.8022 2215.9835,-36.4049 2219.114,-30.1439"/>
</g>
<!-- 62 -->
<g id="node39" class="node">
<title>62</title>
<ellipse fill="none" stroke="#000000" cx="2259" cy="-18" rx="27" ry="18"/>
<text text-anchor="middle" x="2259" y="-14.3" font-family="Times,serif" font-size="14.00" fill="#000000">62</text>
</g>
<!-- 6&#45;&gt;62 -->
<g id="edge38" class="edge">
<title>6&#45;&gt;62</title>
<path fill="none" stroke="#000000" d="M2315.7307,-74.7307C2305.803,-64.803 2292.6847,-51.6847 2281.5637,-40.5637"/>
<polygon fill="#000000" stroke="#000000" points="2283.7933,-37.8436 2274.2473,-33.2473 2278.8436,-42.7933 2283.7933,-37.8436"/>
</g>
<!-- 63 -->
<g id="node40" class="node">
<title>63</title>
<ellipse fill="none" stroke="#000000" cx="2331" cy="-18" rx="27" ry="18"/>
<text text-anchor="middle" x="2331" y="-14.3" font-family="Times,serif" font-size="14.00" fill="#000000">63</text>
</g>
<!-- 6&#45;&gt;63 -->
<g id="edge39" class="edge">
<title>6&#45;&gt;63</title>
<path fill="none" stroke="#000000" d="M2331,-71.8314C2331,-64.131 2331,-54.9743 2331,-46.4166"/>
<polygon fill="#000000" stroke="#000000" points="2334.5001,-46.4132 2331,-36.4133 2327.5001,-46.4133 2334.5001,-46.4132"/>
</g>
<!-- 64 -->
<g id="node41" class="node">
<title>64</title>
<ellipse fill="none" stroke="#000000" cx="2403" cy="-18" rx="27" ry="18"/>
<text text-anchor="middle" x="2403" y="-14.3" font-family="Times,serif" font-size="14.00" fill="#000000">64</text>
</g>
<!-- 6&#45;&gt;64 -->
<g id="edge40" class="edge">
<title>6&#45;&gt;64</title>
<path fill="none" stroke="#000000" d="M2346.2693,-74.7307C2356.197,-64.803 2369.3153,-51.6847 2380.4363,-40.5637"/>
<polygon fill="#000000" stroke="#000000" points="2383.1564,-42.7933 2387.7527,-33.2473 2378.2067,-37.8436 2383.1564,-42.7933"/>
</g>
<!-- 65 -->
<g id="node42" class="node">
<title>65</title>
<ellipse fill="none" stroke="#000000" cx="2475" cy="-18" rx="27" ry="18"/>
<text text-anchor="middle" x="2475" y="-14.3" font-family="Times,serif" font-size="14.00" fill="#000000">65</text>
</g>
<!-- 6&#45;&gt;65 -->
<g id="edge41" class="edge">
<title>6&#45;&gt;65</title>
<path fill="none" stroke="#000000" d="M2352.8705,-79.0647C2377.2222,-66.8889 2416.762,-47.119 2444.2285,-33.3858"/>
<polygon fill="#000000" stroke="#000000" points="2446.0165,-36.4049 2453.3955,-28.8022 2442.886,-30.1439 2446.0165,-36.4049"/>
</g>
<!-- 66 -->
<g id="node43" class="node">
<title>66</title>
<ellipse fill="none" stroke="#000000" cx="2547" cy="-18" rx="27" ry="18"/>
<text text-anchor="middle" x="2547" y="-14.3" font-family="Times,serif" font-size="14.00" fill="#000000">66</text>
</g>
<!-- 6&#45;&gt;66 -->
<g id="edge42" class="edge">
<title>6&#45;&gt;66</title>
<path fill="none" stroke="#000000" d="M2356.5087,-83.8285C2391.8212,-74.9533 2457.3193,-57.2886 2511,-36 2512.8512,-35.2658 2514.7365,-34.4721 2516.6252,-33.641"/>
<polygon fill="#000000" stroke="#000000" points="2518.3796,-36.6845 2525.9565,-29.279 2515.4152,-30.3432 2518.3796,-36.6845"/>
</g>
</g>
</svg>
